<?xml version="1.0" encoding="UTF-8" standalone="no"?>
<!-- Generator: Adobe Illustrator 26.0.0, SVG Export Plug-In . SVG Version: 6.00 Build 0)  -->

<svg
   version="1.1"
   x="0px"
   y="0px"
   viewBox="0 0 110.00001 30.729262"
   xml:space="preserve"
   id="svg484"
   width="110"
   height="30.729261"
   xmlns="http://www.w3.org/2000/svg"
   xmlns:svg="http://www.w3.org/2000/svg"><defs
   id="defs488" />
<style
   type="text/css"
   id="style414">
	.st0{display:none;}
	.st1{fill:url(#SVGID_1_);}
	.st2{fill:url(#SVGID_00000088103391466021102820000004964623417525216696_);}
	.st3{fill:url(#SVGID_00000155145546615358657650000000807785429579641785_);}
	.st4{fill:url(#SVGID_00000017514997250176903160000007593156931652115596_);}
	.st5{fill:url(#SVGID_00000143600253511685801740000002701220501518736017_);}
	.st6{opacity:0.3;}
	.st7{fill:url(#SVGID_00000040543707692952671010000006116041246385948860_);}
	.st8{fill:#555555;}
</style>
<g
   id="BACKGROUND"
   class="st0"
   transform="translate(-3.2286942,-1.908563)">
</g>
<g
   id="OBJECTS"
   transform="matrix(0.56855806,0,0,0.56855806,-1.8357001,-1.0851289)">
	<g
   id="g464">
		<g
   id="g435"
   transform="matrix(0.91666203,0,0,0.91666203,0.26907281,0.15905576)">
			<linearGradient
   id="SVGID_1_"
   gradientUnits="userSpaceOnUse"
   x1="11.7355"
   y1="31.391701"
   x2="45.383999"
   y2="31.391701">
				<stop
   offset="0"
   style="stop-color:#555555"
   id="stop417" />
				<stop
   offset="1"
   style="stop-color:#000000"
   id="stop419" />
			</linearGradient>
			<path
   class="st1"
   d="m 20.22,60.87 c -1.04,0 -2.1,-0.19 -3.13,-0.6 -4.35,-1.73 -6.48,-6.66 -4.75,-11.01 l 16.68,-42 c 1.73,-4.35 6.66,-6.48 11.01,-4.75 4.35,1.73 6.48,6.66 4.75,11.01 l -16.68,42 c -1.32,3.33 -4.51,5.35 -7.88,5.35 z"
   id="path422"
   style="fill:url(#SVGID_1_)" />
			
				<radialGradient
   id="SVGID_00000168094582769486091860000006507936570863449001_"
   cx="30.278"
   cy="21.928301"
   r="11.7194"
   gradientUnits="userSpaceOnUse">
				<stop
   offset="0.1667"
   style="stop-color:#555555"
   id="stop424" />
				<stop
   offset="0.5222"
   style="stop-color:#515159"
   id="stop426" />
				<stop
   offset="0.8762"
   style="stop-color:#454563"
   id="stop428" />
				<stop
   offset="1"
   style="stop-color:#3F3F69"
   id="stop430" />
			</radialGradient>
			<path
   style="fill:url(#SVGID_00000168094582769486091860000006507936570863449001_)"
   d="m 36.01,13.37 c -1.16,-0.31 -4.93,-2.26 -8.17,-3.14 l -9.3,23.41 c 4.96,-2.68 12.6,-5.27 18.36,-0.26 v 0 l 5.11,-12.87 c -2.31,-3.26 -5.06,-6.89 -6,-7.14 z"
   id="path433" />
		</g>
		
			<linearGradient
   id="SVGID_00000163762329824738869050000009968129983515326619_"
   gradientUnits="userSpaceOnUse"
   x1="45.097401"
   y1="41.529499"
   x2="70.691803"
   y2="41.529499"
   gradientTransform="matrix(0.91666203,0,0,0.91666203,0.26907281,0.15905576)">
			<stop
   offset="0"
   style="stop-color:#FFFFFF"
   id="stop437" />
			<stop
   offset="1"
   style="stop-color:#000000"
   id="stop439" />
		</linearGradient>
		<path
   style="fill:url(#SVGID_00000163762329824738869050000009968129983515326619_);stroke-width:0.916662"
   d="m 56.607121,51.052132 7.910794,-19.9099 C 66.10374,27.154753 64.15125,22.635609 60.16377,21.049784 56.17629,19.463958 51.657146,21.416448 50.071321,25.403928 l -7.910793,19.9099 c -1.585826,3.987479 0.366665,8.506623 4.354144,10.092449 0.944162,0.375831 1.915824,0.549997 2.869153,0.549997 3.089151,0 6.013303,-1.851658 7.223296,-4.904142 z"
   id="path442" />
		
			<linearGradient
   id="SVGID_00000176017982193674872000000000360263028235756959_"
   gradientUnits="userSpaceOnUse"
   x1="3.2321999"
   y1="41.529499"
   x2="28.8267"
   y2="41.529499"
   gradientTransform="matrix(0.91666203,0,0,0.91666203,0.26907281,0.15905576)">
			<stop
   offset="0.1173"
   style="stop-color:#555555"
   id="stop444" />
			<stop
   offset="1"
   style="stop-color:#292727"
   id="stop446" />
			<stop
   offset="1"
   style="stop-color:#000000"
   id="stop448" />
		</linearGradient>
		<path
   style="fill:url(#SVGID_00000176017982193674872000000000360263028235756959_);stroke-width:0.916662"
   d="m 18.923145,55.956274 c 0.953329,0 1.92499,-0.174166 2.869152,-0.549997 3.98748,-1.585826 5.93997,-6.10497 4.354145,-10.092449 l -7.910793,-19.9099 C 16.649823,21.416448 12.13068,19.463958 8.1431997,21.049784 4.1465532,22.635609 2.1940631,27.154753 3.7798884,31.142232 l 7.9107936,19.9099 c 1.209994,3.052484 4.134146,4.904142 7.232463,4.904142 z"
   id="path451" />
		
			<linearGradient
   id="SVGID_00000095300828247858532140000015247196227391408292_"
   gradientUnits="userSpaceOnUse"
   x1="22.631599"
   y1="31.3953"
   x2="62.0648"
   y2="31.3953"
   gradientTransform="matrix(0.91666203,0,0,0.91666203,0.26907281,0.15905576)">
			<stop
   offset="0"
   style="stop-color:#555555"
   id="stop453" />
			<stop
   offset="1"
   style="stop-color:#000000"
   id="stop455" />
		</linearGradient>
		<path
   style="fill:url(#SVGID_00000095300828247858532140000015247196227391408292_);stroke-width:0.916662"
   d="M 56.607121,45.313828 41.317199,6.8140221 C 40.721368,5.3015298 39.694707,4.0915359 38.43888,3.2390402 38.365547,3.1840405 38.283047,3.147374 38.200548,3.0923743 38.063048,3.0007081 37.916383,2.9182085 37.769717,2.8357089 37.67805,2.7898758 37.577218,2.7440427 37.485551,2.6982096 37.338885,2.6248766 37.201386,2.5607103 37.045554,2.4965439 c -0.03667,-0.00917 -0.06417,-0.0275 -0.09167,-0.045833 -0.07333,-0.0275 -0.146666,-0.045833 -0.219998,-0.073333 -0.1375,-0.045833 -0.265832,-0.091666 -0.403332,-0.1374993 -0.119166,-0.036666 -0.238332,-0.064166 -0.348331,-0.091666 -0.128333,-0.0275 -0.256666,-0.064166 -0.384998,-0.091666 -0.128333,-0.0275 -0.247499,-0.045833 -0.375832,-0.064166 -0.119166,-0.00917 -0.238332,-0.0275 -0.366665,-0.036666 -0.128332,-0.00917 -0.256665,-0.018333 -0.384998,-0.0275 -0.128332,-0.00917 -0.256665,-0.00917 -0.375831,-0.00917 -0.128333,0 -0.247499,0 -0.375832,0.00917 -0.128332,0.00917 -0.256665,0.018333 -0.384998,0.0275 -0.128332,0.00917 -0.247498,0.0275 -0.375831,0.045833 -0.128333,0.018333 -0.247499,0.036666 -0.375832,0.064166 -0.128332,0.0275 -0.256665,0.055 -0.384998,0.091666 -0.119166,0.0275 -0.229165,0.055 -0.348331,0.091666 -0.137499,0.045833 -0.274999,0.091666 -0.403331,0.1374993 -0.07333,0.0275 -0.146666,0.045833 -0.219999,0.073333 -0.03667,0.00917 -0.06417,0.0275 -0.100833,0.045833 -0.128333,0.055 -0.265832,0.119166 -0.394165,0.1833324 -0.100833,0.045833 -0.210832,0.091666 -0.311665,0.1466659 -0.109999,0.064166 -0.219999,0.1283327 -0.339165,0.192499 -0.109999,0.064166 -0.219999,0.1283327 -0.320832,0.2016657 -0.100832,0.064166 -0.192499,0.1374993 -0.284165,0.2108322 -0.109999,0.0825 -0.219999,0.1558326 -0.320832,0.2383322 -0.09167,0.073333 -0.183332,0.1649991 -0.274998,0.2383321 -0.09167,0.1008328 -0.192499,0.1833324 -0.284165,0.2749986 -0.09167,0.091666 -0.174166,0.192499 -0.265832,0.2933319 -0.07333,0.082499 -0.155833,0.1649991 -0.238332,0.2566653 -0.0825,0.1099995 -0.165,0.2199989 -0.247499,0.3299984 -0.07333,0.091666 -0.1375,0.1833324 -0.201666,0.2841652 -0.07333,0.1099994 -0.137499,0.2199989 -0.201666,0.3299983 -0.06417,0.1099995 -0.128332,0.2199989 -0.192499,0.3299984 -0.055,0.1008328 -0.100832,0.2108322 -0.155832,0.3208317 -0.06417,0.1283327 -0.119166,0.2566653 -0.174166,0.384998 -0.01833,0.036666 -0.0275,0.064166 -0.04583,0.1008328 l -5.85747,14.739925 1.200827,-0.476664 c 3.776647,-1.494159 8.048293,0.302498 9.634118,4.024146 l 10.312448,25.941536 c 1.209994,3.052484 4.134146,4.904142 7.223297,4.904142 0.953328,0 1.92499,-0.174166 2.869152,-0.549997 3.996646,-1.585826 5.93997,-6.10497 4.354144,-10.092449 z"
   id="path458" />
		<path
   class="st6"
   d="M 50.107988,28.933077 41.317199,6.8140221 C 40.721368,5.3015298 39.694707,4.0915359 38.43888,3.2390402 38.365547,3.1840405 38.283047,3.147374 38.200548,3.0923743 38.063048,3.0007081 37.916383,2.9182085 37.769717,2.8357089 37.67805,2.7898758 37.577218,2.7440427 37.485551,2.6982096 37.338885,2.6248766 37.201386,2.5607103 37.045554,2.4965439 c -0.03667,-0.00917 -0.06417,-0.0275 -0.09167,-0.045833 -0.07333,-0.0275 -0.146666,-0.045833 -0.219998,-0.073333 -0.1375,-0.045833 -0.265832,-0.091666 -0.403332,-0.1374993 -0.119166,-0.036666 -0.238332,-0.064166 -0.348331,-0.091666 -0.128333,-0.0275 -0.256666,-0.064166 -0.384998,-0.091666 -0.128333,-0.0275 -0.247499,-0.045833 -0.375832,-0.064166 -0.119166,-0.00917 -0.238332,-0.0275 -0.366665,-0.036666 -0.128332,-0.00917 -0.256665,-0.018333 -0.384998,-0.0275 -0.128332,-0.00917 -0.256665,-0.00917 -0.375831,-0.00917 -0.128333,0 -0.247499,0 -0.375832,0.00917 -0.128332,0.00917 -0.256665,0.018333 -0.384998,0.0275 -0.128332,0.00917 -0.247498,0.0275 -0.375831,0.045833 -0.128333,0.018333 -0.247499,0.036666 -0.375832,0.064166 -0.128332,0.0275 -0.256665,0.055 -0.384998,0.091666 -0.119166,0.0275 -0.229165,0.055 -0.348331,0.091666 -0.137499,0.045833 -0.274999,0.091666 -0.403331,0.1374993 -0.07333,0.0275 -0.146666,0.045833 -0.219999,0.073333 -0.03667,0.00917 -0.06417,0.0275 -0.100833,0.045833 -0.128333,0.055 -0.265832,0.119166 -0.394165,0.1833324 -0.100833,0.045833 -0.210832,0.091666 -0.311665,0.1466659 -0.109999,0.064166 -0.219999,0.1283327 -0.339165,0.192499 -0.109999,0.064166 -0.219999,0.1283327 -0.320832,0.2016657 -0.100832,0.064166 -0.192499,0.1374993 -0.284165,0.2108322 -0.109999,0.0825 -0.219999,0.1558326 -0.320832,0.2383322 -0.09167,0.073333 -0.183332,0.1649991 -0.274998,0.2383321 -0.09167,0.1008328 -0.192499,0.1833324 -0.284165,0.2749986 -0.09167,0.091666 -0.174166,0.192499 -0.265832,0.2933319 -0.07333,0.082499 -0.155833,0.1649991 -0.238332,0.2566653 -0.0825,0.1099995 -0.165,0.2199989 -0.247499,0.3299984 -0.07333,0.091666 -0.1375,0.1833324 -0.201666,0.2841652 -0.07333,0.1099994 -0.137499,0.2199989 -0.201666,0.3299983 -0.06417,0.1099995 -0.128332,0.2199989 -0.192499,0.3299984 -0.055,0.1008328 -0.100832,0.2108322 -0.155832,0.3208317 -0.06417,0.1283327 -0.119166,0.2566653 -0.174166,0.384998 -0.01833,0.036666 -0.0275,0.064166 -0.04583,0.1008328 l -1.631658,4.115812 c 7.599128,1.503326 19.6349,5.802471 24.869041,17.994076 z"
   id="path460"
   style="stroke-width:0.916662" />
		<path
   class="st6"
   d="m 8.1431997,21.049784 c -3.2633169,1.30166 -5.1608073,4.55581 -4.876642,7.883293 0.65083,-0.055 14.1349283,-0.980828 22.2382213,14.758259 v 0 L 18.235649,25.403928 C 16.649823,21.416448 12.13068,19.463958 8.1431997,21.049784 Z"
   id="path462"
   style="stroke-width:0.916662" />
	</g>
	
		<linearGradient
   id="SVGID_00000103979433443207279360000000241761198144024489_"
   gradientUnits="userSpaceOnUse"
   x1="76.835701"
   y1="11.1764"
   x2="93.191498"
   y2="11.1764"
   gradientTransform="matrix(0.91666203,0,0,0.91666203,0.26907281,0.15905576)">
		<stop
   offset="0"
   style="stop-color:#555555"
   id="stop466" />
		<stop
   offset="1"
   style="stop-color:#000000"
   id="stop468" />
	</linearGradient>
	<path
   style="fill:url(#SVGID_00000103979433443207279360000000241761198144024489_);stroke-width:0.916662"
   d="m 85.692808,10.279005 v 0.247498 c 0,-4.143312 -3.354983,-7.4982951 -7.498296,-7.4982951 -4.143312,0 -7.498295,3.3549831 -7.498295,7.4982951 v -0.247498 c 0,4.143312 3.354983,7.498295 7.498295,7.498295 4.143313,0 7.498296,-3.354983 7.498296,-7.498295 z"
   id="path471" />
	<g
   id="g481"
   transform="matrix(0.91666203,0,0,0.91666203,0.26907281,0.15905576)"
   style="fill:#666666">
		<path
   class="st8"
   d="m 85.57,60.66 c -1.78,0 -3.13,-0.52 -4.07,-1.55 -0.94,-1.03 -1.4,-2.48 -1.4,-4.36 V 30.13 c 0,-3.98 1.82,-5.98 5.47,-5.98 1.73,0 3.06,0.52 4,1.55 0.94,1.03 1.4,2.51 1.4,4.43 v 24.62 c 0,1.87 -0.46,3.32 -1.37,4.36 -0.91,1.03 -2.26,1.55 -4.03,1.55 z"
   id="path473"
   style="fill:#666666" />
		<path
   class="st8"
   d="m 104.86,60.73 c -3.65,0 -5.47,-1.85 -5.47,-5.54 V 29.63 c 0,-3.65 1.78,-5.47 5.33,-5.47 3.55,0 5.33,1.83 5.33,5.47 v 0.29 c 1.2,-1.92 2.81,-3.38 4.82,-4.39 2.02,-1.01 4.27,-1.51 6.77,-1.51 4.18,0 7.3,1.21 9.36,3.64 2.06,2.42 3.1,6.16 3.1,11.2 V 55.2 c 0,3.7 -1.82,5.54 -5.47,5.54 -1.73,0 -3.06,-0.48 -4,-1.44 -0.94,-0.96 -1.4,-2.33 -1.4,-4.1 V 39.35 c 0,-2.45 -0.46,-4.21 -1.37,-5.29 -0.91,-1.08 -2.26,-1.62 -4.03,-1.62 -2.3,0 -4.14,0.72 -5.51,2.16 -1.37,1.44 -2.05,3.36 -2.05,5.76 v 14.83 c -0.01,3.69 -1.81,5.54 -5.41,5.54 z"
   id="path475"
   style="fill:#666666" />
		<path
   class="st8"
   d="m 147.7,60.73 c -3.65,0 -5.47,-1.85 -5.47,-5.54 V 29.63 c 0,-3.65 1.78,-5.47 5.33,-5.47 3.55,0 5.33,1.83 5.33,5.47 v 0.29 c 1.2,-1.92 2.81,-3.38 4.82,-4.39 2.02,-1.01 4.27,-1.51 6.77,-1.51 4.18,0 7.3,1.21 9.36,3.64 2.06,2.42 3.1,6.16 3.1,11.2 V 55.2 c 0,3.7 -1.82,5.54 -5.47,5.54 -1.73,0 -3.06,-0.48 -4,-1.44 -0.94,-0.96 -1.4,-2.33 -1.4,-4.1 V 39.35 c 0,-2.45 -0.46,-4.21 -1.37,-5.29 -0.91,-1.08 -2.26,-1.62 -4.03,-1.62 -2.3,0 -4.14,0.72 -5.51,2.16 -1.37,1.44 -2.05,3.36 -2.05,5.76 v 14.83 c -0.01,3.69 -1.81,5.54 -5.41,5.54 z"
   id="path477"
   style="fill:#666666" />
		<path
   class="st8"
   d="m 198.6,60.87 c -2.11,0 -4.28,-0.19 -6.52,-0.58 -2.23,-0.38 -4.26,-1.03 -6.08,-1.94 -1.2,-0.62 -1.98,-1.42 -2.34,-2.38 -0.36,-0.96 -0.37,-1.9 -0.04,-2.81 0.34,-0.91 0.94,-1.6 1.8,-2.05 0.86,-0.46 1.87,-0.44 3.02,0.04 1.97,0.82 3.78,1.39 5.44,1.73 1.66,0.34 3.25,0.5 4.79,0.5 2.02,0 3.5,-0.32 4.46,-0.97 0.96,-0.65 1.44,-1.5 1.44,-2.56 0,-1.68 -1.22,-2.74 -3.67,-3.17 l -7.56,-1.37 c -3.02,-0.53 -5.33,-1.61 -6.91,-3.24 -1.58,-1.63 -2.38,-3.77 -2.38,-6.41 0,-2.4 0.67,-4.46 2.02,-6.19 1.34,-1.73 3.19,-3.07 5.54,-4.03 2.35,-0.96 5.06,-1.44 8.14,-1.44 4.22,0 7.97,0.82 11.23,2.45 1.1,0.53 1.79,1.27 2.05,2.23 0.26,0.96 0.2,1.9 -0.18,2.81 -0.38,0.91 -1.01,1.6 -1.87,2.05 -0.86,0.46 -1.9,0.42 -3.1,-0.11 -1.58,-0.72 -3.02,-1.24 -4.32,-1.55 -1.3,-0.31 -2.52,-0.47 -3.67,-0.47 -2.16,0 -3.72,0.35 -4.68,1.04 -0.96,0.7 -1.44,1.57 -1.44,2.63 0,1.68 1.13,2.74 3.38,3.17 l 7.56,1.37 c 3.12,0.53 5.5,1.57 7.13,3.13 1.63,1.56 2.45,3.68 2.45,6.37 0,3.7 -1.44,6.58 -4.32,8.64 -2.87,2.08 -6.66,3.11 -11.37,3.11 z"
   id="path479"
   style="fill:#666666" />
	</g>
</g>
</svg>
